<?xml version="1.0" encoding="utf-8"?>
<!-- Generator: Adobe Illustrator 21.0.2, SVG Export Plug-In . SVG Version: 6.00 Build 0)  -->
<svg version="1.0" id="Capa_1" xmlns="http://www.w3.org/2000/svg" xmlns:xlink="http://www.w3.org/1999/xlink" x="0px" y="0px"
	 width="1096px" height="780px" viewBox="0 0 1096 780" enable-background="new 0 0 1096 780" xml:space="preserve">
<g id="YoMvWg_1_">
	<g>
		<g>
			<path fill="#CBDDF3" d="M462,549.9c8.7-0.8,17.1-5.1,24.4-9.8c8.8-5.7,14.7-11.9,20.6-18.2c10.1-10.8,10.4-21.8,2.6-32.9
				c-3.5-5-7.2-9.9-10.1-14.9c-7.1-12.4-4-24.2,9.8-35.4c0.5-3.1,1.8-6.1,4-9c4.6-6.1,10.2-12,13.6-18.3c6.8-12.6-2-24-15.5-34.8
				c-9.5-7.6-33.5-7.9-44.5-0.7c-3.9,2.5-6.8,5.3-9.1,8.2c-8,10.3-7.4,21.1-6.8,31.8c0.6,11.4-3.1,22.6-9.5,33.5
				c-6.3,10.8-18.6,20.6-28.2,30.8c-8.1,8.6-30.6,13.5-50.5,7.7c-10.3-3-22.6-3.1-33.1,0.3c-11.5,3.7-20.4,8.4-24.1,14.8
				c-3.3,5.6-4.6,11.3-2.7,17c2.7,8-1.9,15-12.3,21.3c-11.6,7-26.6,11.8-46.5,13.1c-11.1,14-19.2,28.3-25.3,42.9
				c-3.8,9.1-7.1,18.3-10.4,27.5c-0.4,1.2-0.4,2.3-3.4,2.7c-3.4,0.4-3.2-1.1-4.3-1.8c-13.3-8-29-14.8-48.8-19.5
				c-1.9-0.4-3.6-0.8-5.7-0.8c3,1.9,5,3.8,3.9,6.4c-3.4,8.8-12.6,16.1-27,22c-12.8,5.3-27.9,7.5-45.3,4.8c-3.2-0.5-5.9-1.6-9.5-1.6
				c0.5,1.5,2.4,2.6,4.5,3.7c15,7.8,34.5,11.3,57,11.9c22.5,0.6,39.6,6.6,46.2,16.2c1.2,1.7,0.5,3-1.7,4.2
				c-19.7,11.2-45,18.6-76.2,21.5c-16.3,1.5-32,0-44.7-5.1c-15.3-6.1-32.6-9.4-53.2-9.3c0,16.9,0,33.9,0,50.8
				c8.3,1.3,15.5,3.3,22.2,5.9c8.3,3.2,15.8,6.8,25.8,9c-0.1-1.1,1.1-1.9,2.1-2.8c6.6-6.1,16.7-11.1,25-16.7
				c7.2-4.8,15.1-6.2,27.6-4.8c10.7,1.2,20.1,3.6,29.4,6.3c17.1,5,35.6,7.2,54.8,2.9c16.5-3.7,29.2-9.6,39.4-16.5
				c9.1-6.1,15.3-13,21.4-19.8c10.7-12.1,10.7-24.4,1.1-36.6c-4.9-6.2-8.4-12.4-6.3-19c3.3-10,11.6-19,28.4-26
				c7-2.9,16.7-3.3,24.2-0.5c4,1.5,7.7,3.2,10.8,5.1c11.9,7.3,24.9,14.2,39,20.8c6.1,2.8,12.7,3.6,21,2.1c9.8-1.9,18.4-3.4,26-6.7
				c0.7-8.5-4.7-17-13.4-24.2c-6.6-5.5,4.3-13.3,8-15.7c8.5-5.5,23-8.5,18.6-21.6c-1.2-3.7-3-7.5-2-11.2c2.3-8.8,12.2-5.1,17.9-3
				c6.5,2.4,10.1-1.5,12-7.3c0.7-2.2,1.5-4.4,3-6.1c4.7-4.8,8.7,1,12.6,3.2C452.7,549.7,457.4,550.3,462,549.9z"/>
			<path fill="#CBDDF3" d="M814.2,3c-1.4-1.1-4.4-1.9-4.5-3.4c-22.8,0-45.7,0-68.5,0c-1.4,2.5-6.5,3.9-10,5.6
				c-6.4,3.3-10.9,7.2-19.2,9.8c-5.1,1.6-8.4,1-11.3-1c-1.4-1-2.5-2.2-3.2-3.3c-2.2-3.6-3.2-7.4-2.9-11.1c-13.2,0-26.5,0-39.7,0
				c-0.5,7-1.1,14-1.3,21c-0.5,13,1,26,3.7,39c0.9,4.1-4.8,7.8-8.5,11.4c-0.4,0.4-1.1,0.6-1.5,1c-7.6,6.6-5.9,5.8-22.8,4.3
				c-8.2-0.8-16.6-1.2-24.3-2.9c-2.9-0.6-5.3-0.3-7.4,0.7c-15.4,7.3-25,15.9-28.3,25.9c-2.9,8.6-0.2,17.3-1.5,25.9
				c-0.9,6.2-1.4,12.6-7.7,18.4c-3.7,3.5-10,5.1-17.6,6.2c-2.5,0.3-5,0.2-7.2-0.4c-11-3.1-23.2-3.1-35.6-3.1c-4.5,0-6.9,1.1-8,2.8
				c-7.4,12.2,3.7,28.8,42.9,29.3c28.8,0.3,47.9-9.7,55.3-21.3c3.6-5.7,1.6-11.5,4-17.2c2.2-5,5.2-9.9,12.6-14
				c4.9-2.7,8.3-2.6,12.7,0.2c5.3,3.4,7.6,7.4,10.4,11.2c2.8,3.8,5.7,7.5,10.9,10.8c6.9-0.1,10,2.1,12.8,4.3c5.3,4.2,9,8.7,13,13.1
				c4.2,4.6,7,9.5,14.7,13.3c15.5,2.9,24.9-3,29.1-8c1.3-1.6,2-3.3,1.7-5.1c-0.9-5.5-1.9-10.9-2.5-16.4c-0.7-7.4-0.8-14.7,9.2-21.1
				c9.6-6.2,22.4-6.7,34.5-1.5c12,5.2,25.4,9.5,40,13.1c0.6,0.1,1.2,0.3,1.8,0.4c14.5,3.2,22.3,1.1,22.4-6.1c0.1-8.8-4.6-17.1-13-25
				c-4.6-4.4-11.7-8-20.3-10.6c-25.5-7.4-35.6-18.6-40.6-31.2c-3.2-8.2-4.9-16.3,0-24.5c3-5,6.7-10,15.3-13.8
				c7.7-3.4,14.5-3.5,22.4,0c9.2,4.1,16.1,8.8,20.2,14.3c4.8,6.5,10.8,12.7,19,18.5c3.7,2.6,8.4,3.9,15.2,3.6
				c7.1-0.3,10.9-2.4,12.8-5.2c4.2-6.2,4.1-12.7,2.5-19.1C842.5,27.9,829.8,15.2,814.2,3z"/>
			<path fill="#CBDDF3" d="M94,160.5c11.4,1.7,23.9,2.1,34.9,4.1c9.6,1.8,19,1.3,28.6,1.5c13-2.6,25.6-5.5,37.8-8.9
				c26.5-7.5,51.1-15.8,71.3-26.7c24.5-13.1,34.3-27.7,24.1-44.5c-5.1-8.4-6.4-16.7-0.4-25.2c7.5-10.7,26-19.1,55-19
				c10.2,0,20.5,0.6,30.6-0.5c5.8-0.6,10.1-2.7,16-3.1C404.2,26,417,13.9,427.1,1.4c0.5-0.6,1.2-1.1,0.4-1.7c-39.3,0-78.5,0-117.8,0
				c-2.3,4.3-9.5,7.2-14.8,10.6c-3.7,2.4-8.7,3.7-14.8,4.5c-4.1,0.5-4.8,0.2-3.7-1.6c2.7-4.4,4.2-8.9,3.2-13.5c-12.3,0-24.7,0-37,0
				c-1.9,2.5-4.2,4.9-5.2,7.5c-4,11-3.8,21.9,0.7,32.8c4.6,11.4,3.8,22.7-3.4,33.8c-7,13-17.7,25.4-33.9,36.8
				c-8.1,5.7-17.4,10.9-30.3,14.7c-0.6,0.3-1.1,0.6-1.8,0.9c-21.6,7.7-45.7,8.2-71.1,5c-3.2-0.4-3.2-1.5-3.4-2.6
				c-1-9.3,0-18.5,3.9-27.6c2.3-5.3,6.2-10.4,5-15.9c-0.7-3.4-2.6-6.5-11.1-7.6c-0.1,0.8-0.2,1.6-0.4,2.4c-1.4,7.5-6.3,14.3-18,19.9
				c-7.3,3.5-14.4,3.7-22.9,0.8c-5.7-1.9-10.7-4.1-15.2-6.5c-3.2,5-6,10-10.9,14.7c-6.3,6-12.5,12.1-24.8,16.4c0,17.3,0,34.7,0,52
				c9-3.2,15.9-7.4,24.9-10.7C45.8,158.9,68.4,156.7,94,160.5z"/>
			<path fill="#CBDDF3" d="M679.8,737.2c-16.4-4-27.5-10-32.3-18c-3-5-3.6-10.1-2.6-15.3c1.4-6.8,2.6-13.5,4.1-20.3
				c0.5-2.2,2.2-4.3,1.2-6.6c-2.1-4.8-8.8-8-17.8-10.2c-10.9-2.6-22.5-4.4-35.2-4c-16.6-0.2-29.9,3-41.5,8c-8.4,3.5-12.7,3-16.5-1.9
				c-4.2-5.3-9.7-10.4-17.9-14.7c-12-6.3-16.7-6-25.1,1.4c-12.7,11.2-11.8,22.6-1.5,34c11.6,12.8,16.2,26.1,15,39.8
				c-0.9,10.5-9.9,19.2-29.3,25.4c-6,1.9-10.9,4.3-15.6,6.8c-10.1,5.5-17,11.8-23.7,18.1l82.4,0.1c1.3-4.2,7.4-7.3,13.1-10.5
				c12.9-7.1,21.1-14.8,20-24.2c-1-8.4,0.5-16.7,6-24.7c1.2-1.7,1.9-4.1,6.7-4.1c4.4,0,4.9,2.4,6.1,4c8,10.5,14.8,21.1,20.5,32
				c1.3,2.5,3.5,4.5,7.6,6.3c6.8,2.9,12.1,6.3,13.9,10.6c2.3,5.6-6.9,10.7-19.3,10.7c-16.6,0-33.3,0.1-49.9,0.1
				c0.4,1,82.4-0.3,88.2-0.1c10.2,0.2,20.5,0.1,30.8,0.1c11.2,0,11.2,0,12.5-4.8c0.2-0.6,0.6-1.2,1-1.8c2.2-3.6,6.2-6.7,11.1-9.7
				c7.6-4.7,14.2-9.6,9.2-15.8C697.2,742.9,689.4,739.6,679.8,737.2z"/>
			<path fill="#CBDDF3" d="M17.6,490.3c1.6-8.6-1.6-17.2-4.5-25.8c-2.4-6.9-5.5-13.8-2.1-20.9c2.1-4.3,6.8-7.9,14.7-10.3
				c11.4-3.5,14.1-8.7,15.4-14.3c1.1-4.7-1.7-9.3-3.5-13.9c-3.1-8-4.4-16.1-6.3-24.2c-1.2-5-1.5-9.9-1.2-14.9
				c0.3-5.8,6.3-10.2,17.8-12.8c26.1-5.9,41.3-15.1,46.9-27.9c2.5-5.7,7.2-11.1,12.1-16.5c3.7-4.1,10.6-5.7,19.4-7.2
				c18.4-3.1,33.9-8.1,39.5-17.2c2.6-4.2,2.6-8.7-0.2-13c-3.9-5.9-13-7.4-26.1-7c-5.3,0.2-7.9,2.2-10.1,4.2
				c-6,5.3-12.1,10.5-17.8,15.9c-5.9,5.5-14.4,9.9-26.7,12.6c-14,3.1-22.3,8.1-27.1,14.6c-4.6,6.4-11.9,12.1-22.8,16.8
				c-6.8,3-15.5,2.8-22.6,0c-4.6-1.8-6.9-4.6-12.6-6c0,61.2,0,122.4,0,183.5C12,502.3,16.5,496.5,17.6,490.3z"/>
			<path fill="#CBDDF3" d="M1055.4,414.9c-14.7,13.6-20.3,27.9-22.4,42.8c-1.5,11.2-10.5,21-31.3,28.1c-2.2,0.7-4.5,1.4-6.8,2
				c-0.6,0.8-1,1.6-1.7,2.3c-5.7,6.4-4.7,12.2,7.2,17.2c4.4,1.9,8.2,4.1,12.2,6.1c11.1,0.5,20.5-0.8,27.8-4.7c1.1-0.6,2.8-1,4.3-1.4
				c11.2-8.3,16.1-17.4,18-26.9c0.8-4,1-8.1,1.9-12.2c1.1-4.7,4.3-9.1,9.5-13.3c7.5-6.1,14.7-12.4,22-18.6c0-30.6,0-61.2,0-91.8
				c-6.2,8.5-9.8,17.4-13.6,26.1C1075.9,385.8,1070.5,401,1055.4,414.9z"/>
			<path fill="#CBDDF3" d="M1083.9,140.4c-2.8-0.4-5.5-1-8.4-1.2c-14.4-0.9-21.4,1.6-21.6,8.8c-0.1,7.9,2.8,15.8,13.6,22.5
				c7,4.3,15.9,7.5,28.5,7.9c0-12,0-24.1,0-36.1C1091.6,142.2,1088,140.9,1083.9,140.4z"/>
			<path fill="#CBDDF3" d="M835.7,453c-4.7-1.2-8.1-3.1-13-4.4c-11.9-3-24-5.7-36.2-8.3c-10.9-2.4-21.3-13.9-22.5-19.9
				c-2.2-11.7,47.5-66.7,65-73.6c2.8-1.1-10.7-33.3-11-47c-0.3-11.1-11-19.3-34.6-24.1c-25.9-5.3-40-14.7-43.4-27.3
				c-0.4-1.6-0.1-3.3,1.5-4.8c2.9-7.2,5.7-14.4,5.3-21.8c-0.6-11.2-12-20-30.5-27.2c-3.8-1.5-8.8-2.1-13.5-2.9
				c-3,0.1-4.6,1.2-6.8,1.9c-8.9,2.7-18.4,3-28.5,1.9c-5.5,6.4-16.1,11.3-25.2,16.6c-14.6,8.5-20.4,18.1-21.5,28.4
				c-0.3,3.2-0.4,6.5,1.1,9.7c2.4,4.9,9.1,7.9,20,7.4c20.2-0.9,33.7,4.4,39.5,13.8c4.1,6.6,4,13.1,0.7,19.6
				c18.6-2.5,26.8-0.9,35.6,7c3.6,3.2,7.2,6.4,10.4,9.6c7.1,7.3,7.7,14.8,2.7,22.4c-3.3,5-10.7,8.4-21.8,10.2
				c-13.2,2.2-23.9,5.9-32.2,10.9c-6.4,3.9-7,8.4-5,12.9c9.2,21.1,12.4,42.4,10.4,63.9c-0.6,6.6-6.5,12-19.3,15.7
				c-11.3,3.2-20.9,2.2-27.7-3c-7.7-5.9-10.9-12.2-11.3-19c-0.1-2.1,2-4.7-4.1-6c-4.2-0.9-14,0.8-17.9,2.9c-3.7,2-6,4.3-7.7,6.8
				c-9.7,14.4-6.9,28.2,11.7,40.8c12.5,8.4,19.9,17.4,24.5,27.2c6,13.1,17.7,25.5,23.6,38.6c4.4,9.9,8.9,19.8,4.8,30
				c-3.1,7.6-8.8,14.3-26.2,17.8c-6.9,1.4-12.2,0.8-17.3-1.5c-13.4-6-17.6-13.6-19.3-21.7c-0.8-3.6-1.6-7.3-1.2-11
				c1.7-13.8-7-26.6-18.8-39.1c-2.1-2.2-4-4.5-7.2-6.6c-5.6-3.5-12.6-5.2-22.4-4.1c3,6.5,6.2,12.9,8.8,19.4c5,12.5,8.7,25,4.9,37.7
				c-1,3.5-2.8,6.8-5.8,10c-4.3,4.5-10,7.9-22.1,9.4c-20.9,2.6-38.7,8.2-54.8,14.6c-18.7,7.5-25.3,17.4-26.8,28.2
				c-0.5,3.7-1.2,7.5,2.6,11.1c10.4,4.8,17.1,4.7,27.4-0.1c8.7-4.1,13.1-9.2,17.5-14.4c10.3-12.1,39.2-16.3,63.2-9.1
				c9.1,2.7,14.2,6.8,17.8,11.3c3.8,4.7,9.1,9.1,15.9,13.1c2.1,1.3,6.3,1.9,6.2,3.8c0.9,0,2,0,2.7,0.2c10.5,3.1,19.6,1.3,28.2-1.6
				c7.9-2.6,16.4-4.2,26.5-4.1c15.5,0.2,22.9,3.3,23.3,10.4c0.2,4-0.4,7.9,1.6,11.8c13.4,0.8,23.5-2.8,27.9-10.1
				c2.5-4.2,4.4-8.4,11.6-11.5c1.1-0.5,2.1-1.1,3.3-1.6c6.4-2.9,14.6-3.7,21-2.1c7.1,1.8,11,5.7,9.2,9.4c-1.8,3.8-3,7.6-3,11.5
				c0,2.7-0.3,5.5,1.5,8.6c11.5-4.4,17.6-9.6,18.8-16.1c1.7-9.1-1.7-17.8-7-26.6c-4.2-6.9-7.7-13.8-11.5-20.7
				c-1.3-2.4-3-4.7-3.9-7.1c-2.3-6.2-4.8-12.4-3.2-18.8c1.3-5,2.5-10.1,2.6-15.2c0.1-5-1.8-9.9-2.8-14.8
				c-2.1-10.4,6.4-19.6,18.3-28.2c8.1-5.8,19.4-7.7,34.5-6.5c11.5,0.9,22.3-0.1,29.3-4.5c13-8.3,17.9-17.6,15.7-27.7
				C845,461.1,839.9,457.1,835.7,453z"/>
		</g>
		<g>
			<path fill="#5096D1" d="M571.3,196.4c27.9-14.1,48.4-30.3,64.5-47.6c-5.2-3.3-8.1-7-10.9-10.8c-2.8-3.8-5.1-7.8-10.4-11.2
				c-4.5-2.8-7.8-3-12.7-0.2c-7.4,4.1-10.4,9-12.6,14c-2.4,5.7-0.4,11.6-4,17.2c-7.4,11.6-26.5,21.6-55.3,21.3
				c-39.2-0.4-50.3-17.1-42.9-29.3c1-1.7,3.5-2.7,8-2.8c12.3,0,24.6,0,35.6,3.1c2.2,0.6,4.7,0.8,7.2,0.4c7.6-1.1,14-2.7,17.6-6.2
				c6.2-5.9,6.7-12.2,7.7-18.4c1.3-8.6-1.4-17.3,1.5-25.9c3.3-9.9,13-18.5,28.3-25.9c2.1-1,4.5-1.4,7.4-0.7
				c7.7,1.7,16.1,2.2,24.3,2.9c16.8,1.6,15.2,2.4,22.8-4.3c0.4-0.4,1.2-0.6,1.5-1c3.7-3.7,9.4-7.3,8.5-11.4c-2.7-13-4.2-25.9-3.7-39
				c0.3-7,0.9-14,1.3-21c-25.1,0-50.2,0-75.3,0c0.1,3.5-0.2,6.9,0.5,10.4c2.9,14.7,5.3,29.4,1,44.2c-3.9,13.2-14.6,24.9-36.6,33.9
				c-18.8,7.7-38.7,14.9-58.9,21.8c-26.5,9.2-42.5,20.9-48.8,35.6c-4.6,10.6-1.9,21.1-0.6,31.7c2.3,18.7,2.2,37.3-5.2,55.7
				c-9.8,24.3-21,48.5-33.7,72.6c-3.7,7.1-5.1,14.8-18.5,20.2c-3,1.2-5.2,2.8-7.5,4.4c-11.9,8.1-19.2,17.1-24.4,26.4
				c-1.9,3.4-5.6,6-12.8,7.4c-3.8,0.7-6.8,0.6-8-1.8c-3.4-6.8-3.6-13.5,0.6-20.2c4.5-7.2,9.5-14.2,13.6-21.4
				c3-5.3,1.5-10.3-7.8-14.4c-6.5-2.9-10.1-2.9-15.4,0.5c-6,3.9-10.6,8.1-14.4,12.5c-7.6,8.8-12,17.9-16.3,27.1
				c-5.5,11.7-18.2,22.4-25.3,33.9c-3.7,5.9-8,7.2-21.7,6.8c-7.7-0.2-13,1-17.4,3.8c-8.7,5.6-10.6,11.9-9.2,18.4
				c1.6,7.3-1.2,14.4-5.5,21.4c-5.7,11.2-15.8,21.7-28.8,31.6c-11.8,9-19.4,18.4-17.1,29c1.9,8.8-1.8,17.3-10.1,25.3
				C139,528,129,540.1,119.8,552.4c-8.1,10.8-31.7,15.3-54.7,10.3c-13.3-2.9-27.1-1-35,4.5c-7.1,5-12.8,10.3-16.5,16
				c-1,1.5-2.4,3.1,0.3,4.3c3.1,1.4,6.5,0.2,9.5-0.3c8-1.5,15.8-3.2,24.4-3.9c8.9-0.7,11.1-0.3,15.1,3.4c10,9,31.7,11.3,47.2,5.7
				c7.9-2.9,14.3-2.2,20.6,1.4c2.7,1.5,4.9,3.2,6.6,5c2.2,2.4,4.9,4.6,8.9,6.5c2.1,0,3.9,0.4,5.7,0.8c19.9,4.7,35.6,11.5,48.8,19.5
				c1.2,0.7,0.9,2.3,4.3,1.8c2.9-0.4,3-1.5,3.4-2.7c3.4-9.2,6.6-18.4,10.4-27.5c6.1-14.6,14.2-28.9,25.3-42.9
				c-1.2-1.1-2.7-0.4-3.9-0.1c-17.5,4.4-26.8,0-32.5-5.7c-10-9.9-6.8-19.4,3.8-28.8c8-7.1,20.7-12.6,30.5-19.1
				c15.4-10.2,21.8-20.9,12.8-33.2c-8.2-11.2-7.8-22.7,1.5-33.9c4.8-5.8,12.8-10.3,26.7-12.1c9.7-1.3,19.4-0.7,29.1,0.2
				c19.7,1.8,31.5-2.4,31.9-11.4c0.2-4.6,0-9.2,1.3-13.7c2.9-10.4,10-20.1,23.8-28.6c6.8-4.2,15.2-4,21,0.5c3.2,2.5,5.7,5.1,9,7.5
				c9.3,6.8,22.7,8.1,38,4c10.3-2.8,18-6.9,27-10.3c11.7-4.4,17.3-9.9,20.4-16.6c4.7-10.1,11.9-20.1,20.9-29.7
				c0.5-10.1,0.3-20.1,1.2-30.2c1.1-12.5,0.1-25,1.7-37.5c1.3-10.6,7-20.6,16.6-30.3C535.8,214.1,553.6,205.3,571.3,196.4z"/>
			<path fill="#5096D1" d="M667.5,195.5c10.1,1.1,19.6,0.8,28.5-1.9c2.2-0.7,3.8-1.8,6.8-1.9c7.4-4,12.7-8.6,19.1-12.9
				c5.8-3.9,12.1-4,19-0.4c8.8,4.5,16.8,9.4,25.5,14c4.9,2.6,10.2,5,18.3,5.6c15.6,1.1,25.2-2.2,28.6-10.3
				c2.6-6.1,10.2-10.2,22.8-12.3c14.7-2.5,29.6-2.2,40.5,3.6c5.8,3.1,11.7,6.3,17.9,9.3c9.4,4.6,17.7,4.6,27.6,0.4
				c18.2-7.8,20.1-17.8,17.2-28c-2.2-7.8-8.7-14.9-23.2-20.1c-8.8-3.1-12.3-8-18.2-12.1c-5.9-4.1-11.8-8.2-17.4-12.4
				c-9.2-6.9-13.1-14.4-11.2-22.3c2-8.6,18.8-15,41.8-16.7c3.6-0.3,7.3-0.7,10.9-0.6c15.5,0.4,27.5-4.1,29.9-12.4
				c3.7-12.9,1.9-25.7-5.6-38.2C939.7,15,923.6,7.3,903.6,1.1c-1.3-0.4-2.8-0.7-3.4-1.4c-30.1,0-60.3,0-90.4,0
				c0.1,1.5,3,2.2,4.5,3.4c15.6,12.2,28.3,24.9,31.8,39c1.6,6.4,1.7,12.8-2.5,19.1c-1.9,2.8-5.7,4.9-12.8,5.2
				c-6.8,0.3-11.5-1-15.2-3.6c-8.3-5.8-14.3-12-19-18.5c-4-5.5-11-10.3-20.2-14.3c-7.9-3.5-14.7-3.4-22.4,0
				c-8.6,3.8-12.2,8.8-15.3,13.8c-4.9,8.1-3.3,16.3,0,24.5c5,12.6,15.2,23.7,40.6,31.2c8.6,2.5,15.7,6.2,20.3,10.6
				c8.4,7.9,13.1,16.2,13,25c-0.1,7.2-7.9,9.3-22.4,6.1c-0.6-0.1-1.2-0.3-1.8-0.4c-14.6-3.6-28-8-40-13.1
				c-12.1-5.2-24.9-4.6-34.5,1.5c-9.9,6.4-9.9,13.8-9.2,21.1c0.5,5.5,1.6,10.9,2.5,16.4c0.3,1.8-0.4,3.5-1.7,5.1
				c-4.3,5-13.7,10.9-29.1,8c-7.6,3.4-12.1,7.4-9.9,12.4C666.8,193.1,667.1,194.3,667.5,195.5z"/>
			<path fill="#5096D1" d="M51.2,511.9c12.2-7.9,13.2-16.2,7.2-25.1c-3.5-5.2-7.3-10.3-8.5-15.7c-0.6-2.7-0.5-5.3,1.6-7.8
				c9-10.5,19.4-20.7,37.1-29c2-0.9,4.4-1.8,6.5-2.7c1-0.7,2-1.4,3.1-2c7.6-4.1,9.3-8.5,4.5-13.4c-6.4-6.4-15.6-12-25-17.5
				c-15.2-8.9-14.5-26.6,13.9-34.1c14.9-3.9,28.2-9,43.8-12.4c5.7-1.3,12-1.9,17.4-3.5c13.9-4.3,16.2-8.6,7.2-15
				c-5.7-4-10.5-8-9.6-13.1c1.3-7,13.4-13.3,28.8-13.2c22.8,0.2,38.7-4.5,51.1-12.3c9-5.7,17.7-11.5,19.4-18.6
				c1.6-6.7-3.1-12.5-14.8-16.9c-7.6-2.9-17-2.3-25.6-1.8c-21.3,1.4-38.5-1.9-53-8.5c-9.8-4.5-21.2-7.2-35.3-7.9
				c-11-0.5-21,1.6-26,6.1c-7.7,6.9-9.8,14.4-9.9,22c-0.1,7.6-4.4,14.7-14.4,20.9c-4.2,2.6-9.5,4.6-16.4,5.8
				c-7.7,1.3-15.2,1.9-22.8-0.3c-6.3-1.8-13-3.4-19.6-5c-3.8-0.9-7.2-2.2-11.9-2.2c0,11.2,0,22.4,0,33.6c5.7,1.4,8,4.1,12.6,6
				c7.1,2.8,15.8,3,22.6,0c10.9-4.7,18.2-10.4,22.8-16.8c4.7-6.5,13.1-11.5,27.1-14.6c12.3-2.7,20.8-7.1,26.7-12.6
				c5.7-5.3,11.8-10.6,17.8-15.9c2.2-1.9,4.8-4,10.1-4.2c13.1-0.5,22.1,1.1,26.1,7c2.8,4.2,2.8,8.7,0.2,13
				c-5.6,9.1-21.2,14-39.5,17.2c-8.8,1.5-15.7,3.1-19.4,7.2c-4.9,5.4-9.6,10.8-12.1,16.5c-5.6,12.8-20.9,22-46.9,27.9
				c-11.5,2.6-17.5,7-17.8,12.8c-0.3,5,0.1,9.9,1.2,14.9c1.9,8.1,3.2,16.2,6.3,24.2c1.8,4.6,4.5,9.2,3.5,13.9
				c-1.3,5.6-4,10.7-15.4,14.3c-7.9,2.4-12.7,6.1-14.7,10.3c-3.4,7-0.3,13.9,2.1,20.9c2.9,8.5,6.2,17.1,4.5,25.8
				c-1.2,6.2-5.6,11.9-17.6,15.9c0,11.2,0,22.4,0,33.6c9.1-2.4,15-6.2,21.6-9.6C32.7,524.5,41.6,518.1,51.2,511.9z"/>
			<path fill="#5096D1" d="M636.4,779.6c10.2,0.2,20.5,0.1,30.8,0.1c3.5,0,5.9,0,7.6-0.1C655.9,779.5,632.8,779.5,636.4,779.6z"/>
			<path fill="#5096D1" d="M864.2,751.5c-22.8-8.6-48.9-13.8-79.2-14.7c-35.7-1-72.9-14.8-80.1-29.4c-1.9-3.9-0.5-7.9-0.9-11.9
				c-15.7-6.3-21.4-14.7-23-23.7c-1.1-6.3-0.3-12.6,1.9-18.8c0.6-1.8,0.6-3.6,0.8-5.5c-2-3.9-1.4-7.9-1.6-11.8
				c-0.4-7-7.8-10.1-23.3-10.4c-10.1-0.1-18.6,1.4-26.5,4.1c-8.6,2.9-17.8,4.7-28.2,1.6c-0.7-0.2-1.8-0.1-2.7-0.2
				c-10.7-0.1-20.8,0.9-30.2,3.3c-6.4,1.6-8.9,4-8.4,7.1c0.4,2.3,2.5,4.3,5.2,6.2c6.7,4.8,15.9,8.7,24.9,12.5
				c1.8,0.7,4.5,1.2,4.1,2.6c12.7-0.3,24.4,1.4,35.2,4c9,2.2,15.7,5.4,17.8,10.2c1,2.3-0.7,4.4-1.2,6.6c-1.6,6.8-2.7,13.5-4.1,20.3
				c-1.1,5.3-0.4,10.3,2.6,15.3c4.8,8.1,15.9,14,32.3,18c9.6,2.4,17.4,5.6,21.2,10.4c5,6.2-1.6,11.1-9.2,15.8
				c-4.9,3-8.9,6.1-11.1,9.7c-0.4,0.6-0.8,1.2-1,1.8c-0.9,3.3-1.2,4.4-4.9,4.7c10.9,0,20.4,0,22.5,0c16.6,0.1,33.3-0.1,49.9-0.1
				c-0.5-1.1-1-2.2-1.6-3.3c-1.5-2.9,0.8-4.7,7.3-5.9c5.6-1,11.2-1.8,17-2.3c15-1.4,27.4,0.6,36.9,6c2.1,1.2,3.6,2.6,6.7,3.4
				c6.5-5,15.8-8.6,28.5-10.1c13.2-1.5,26.3-3,39.1-5C878.9,757.7,871.8,754.4,864.2,751.5z"/>
			<path fill="#5096D1" d="M347.8,163.3c-8.2,11-18,21.6-33.8,30.9c-15.7,9.2-34.6,16.7-57.2,22.4c-2.4,0.6-4.5,1.3-6.8,2
				c30.3-0.2,46.5,4.6,58,17.2c1.1,1.2,2.3,2.4,3.9,4.1c12.2-7.6,25.7-13.9,38.1-20.6c18.2-9.9,31.8-20.9,38.8-33.3
				c5.4-9.6,5.6-19.3,2.3-29.1c-4.8-14.4,0.7-27.8,16.3-40.7c13.3-11,29.8-20.9,46.7-30.8c11.4-6.7,19.8-14.2,25.8-22.1
				c9.7-12.8,22.8-24.8,37.9-36.5c9.5-7.4,14.7-15.5,18.8-23.8c0.5-1.1,1.2-2.2,1.7-3.3c-13.7,0-27.4,0-41.1,0
				c0.1,5-3.9,9.6-7.3,14.2c-7.6,10.1-19.2,19.3-34.1,27.7c-18.7,10.5-32.2,22.4-43.6,34.8c-16,17.4-33.2,34.7-43.8,53
				C362,140.7,356.2,152.2,347.8,163.3z"/>
			<path fill="#5096D1" d="M1052.4,48c-3.5,0.2-6.9,0.5-9.1,1.8c-10.6,6.3-16.8,13.1-12.6,21.1c2.8,5.2,11.4,8.5,21.3,11
				c16.6,4.3,28.9,10.3,34.6,18.6c4.2,6.1,0.7,9.8-12.1,12.6c-21.9,4.8-44.9,6.5-69.1,4.5c-6.7-0.6-13.4-1.2-20.3-1
				c-9.5,0.3-14,2.5-13.6,6.8c0.3,3.7,3.8,6.9,7.4,10.1c8.7,7.6,18.5,15,29.4,22c15.5,10,22.2,21.1,18.4,33.3
				c-3,9.5,2.1,13.8,20.8,18.5c15.5,3.9,31.8,4.6,48.8,2.4c0-10.4,0-20.8,0-31.2c-12.7-0.3-21.6-3.5-28.5-7.9
				c-10.8-6.7-13.7-14.6-13.6-22.5c0.1-7.2,7.2-9.7,21.6-8.8c2.9,0.2,5.6,0.8,8.4,1.2c4.1,0.6,7.7,1.8,12.2,1.8
				c0-30.2,0-60.4,0-90.5C1082.3,48.5,1067.9,47.2,1052.4,48z"/>
			<path fill="#5096D1" d="M98,694.3c31.2-2.9,56.5-10.3,76.2-21.5c2.2-1.3,2.9-2.6,1.7-4.2c-6.6-9.6-23.7-15.6-46.2-16.2
				c-22.5-0.6-42-4.1-57-11.9c-2.1-1.1-4-2.2-4.5-3.7c-18.7-5.6-38.7-9-61.6-7.2c-2.2,0.2-4.4,0.5-6.6,0.7c0,16.5,0,33,0,49.6
				c20.6-0.1,37.9,3.2,53.2,9.3C65.9,694.3,81.7,695.8,98,694.3z"/>
			<path fill="#5096D1" d="M99.6,767.1c-23.7,2-46.9,1.5-67.7-4.8c-8.5-2.6-15-6.3-23.7-8.7c-2.6-0.7-4.6-2-8.1-2.1
				c0,9.4,0,18.8,0,28.1c42.4,0,84.8,0,127.2-0.1c9.3,0,18.7-0.1,28-0.2C145,770,122.8,765.2,99.6,767.1z"/>
			<path fill="#5096D1" d="M1096.2,1.5c0.1-1.5-0.8-1.9-4.2-1.9c-25.6,0.1-51.1,0-76.7,0c-1.7,8.5,7.1,13.3,26.1,14.6
				c15.7,1.1,30.9,3.3,46.1,5.4c2.8,0.4,5.6,0.9,8.6,0.8C1096.1,14.1,1095.9,7.8,1096.2,1.5z"/>
			<path fill="#5096D1" d="M700.7,14.1c2.9,2,6.3,2.6,11.3,1c8.2-2.6,12.7-6.6,19.2-9.8c3.5-1.8,8.6-3.1,10-5.6
				c-15.5,0-31.1,0-46.6,0c-0.3,3.8,0.7,7.5,2.9,11.1C698.2,12,699.3,13.1,700.7,14.1z"/>
			<path fill="#5096D1" d="M365.8,639.9c-8.3,1.6-14.9,0.7-21-2.1c-14.1-6.5-27.1-13.4-39-20.8c-3.1-1.9-6.8-3.6-10.8-5.1
				c-7.4-2.8-17.1-2.5-24.2,0.5c-16.9,7.1-25.2,16-28.4,26c-2.2,6.6,1.4,12.8,6.3,19c9.6,12.2,9.7,24.5-1.1,36.6
				c-6,6.8-12.3,13.6-21.4,19.8c-10.2,6.8-22.8,12.8-39.4,16.5c-19.2,4.3-37.7,2.1-54.8-2.9c-9.2-2.7-18.7-5.1-29.4-6.3
				c-12.4-1.4-20.4,0-27.6,4.8c-8.3,5.6-18.5,10.6-25,16.7c-1,0.9-2.2,1.8-2.1,2.8c11.3,4.9,25.2,5.6,39.4,4.3
				c16.7-1.5,32.8-1.5,48.9,1.2c15.8,2.7,27.2,8.1,39.1,13c6.2,2.6,12.3,5.2,14.6,9c1.6,2.7,8.5,3.6,9.8,6.4c13,0,26,0,39.1-0.1
				c0.8-1.8,5-1.9,7.4-2.9c11.8-4.9,19-10.9,23.3-17.7c6.9-11,10.8-22.2,7.5-33.8c-4.1-14.5,9.6-25.2,36.4-33
				c4.4-1.3,8.5-2.7,12.9-4c4.7-1.3,9.6-2.4,15.4-2.2c22.1,0.8,37.6-3.5,47.9-12.1c16.6-13.7,15.8-27.6,2.2-41.6
				C384.2,635.5,375.6,638.1,365.8,639.9z"/>
			<path fill="#5096D1" d="M1008.4,633.6c3.1-0.6,3.5-2.2,3.5-3.4c-0.3-5.6-0.3-11.2-1.5-16.8c-3.3-15.3-3.7-30.5,4.5-45.6
				c3.1-5.8,9.8-10.4,16.4-15.2c8.9-6.5,15.8-13.4,20.2-20.7c5-8.5,2.5-16.8-6.8-24.5c-1.4,0.5-3.2,0.8-4.3,1.4
				c-7.3,4-16.7,5.3-27.8,4.7c-0.2,10.6-7.9,20-22,28.4c-13.3,7.9-14.8,8-34.5,1.5c-14.9-4.9-19.4-12.7-20-20.7
				c-1.1-14.9-6.9-29.3-17.8-43.4c-9.6-12.5-7.3-24.8,5.6-36.8c12.6-11.8,19.9-24.3,20-37.5c0-6.4-3.6-12.5-9.5-18.3
				c-1.5-1.5-3.2-3.3-7.4-3.2c-4.2,0.1-5.5,2-6.9,3.5c-5.5,6.2-6.9,12.9-10.3,19.3c-8.3,15.7-23,29.8-51.7,40.3
				c-6.9,2.5-15.4,3.9-22.3,6.4c4.2,4.1,9.4,8,10.4,12.8c2.2,10.1-2.7,19.4-15.7,27.7c-7,4.5-17.9,5.4-29.3,4.5
				c-15.1-1.2-26.4,0.7-34.5,6.5c-12,8.6-20.4,17.8-18.3,28.2c1,4.9,2.9,9.8,2.8,14.8c-0.1,5.1-1.3,10.1-2.6,15.2
				c-1.6,6.3,0.8,12.5,3.2,18.8c0.9,2.4,2.6,4.7,3.9,7.1c13.6-2,20.5-7.5,19.3-15.1c-0.8-5-3.8-9.8-6.9-14.6
				c-6.7-10.5-7.6-20.9,5.5-30.8c4.5-3.3,9.9-6.4,17.7-8.3c11.8-2.9,24.2-2.4,34.8,0.4c13.9,3.6,24,0.9,34.1-2.6
				c5.5-1.9,10.2-4.4,15.3-6.5c3-1.3,6-2.6,9.4-3.6c9.5-2.8,17.7-1.5,20.2,3.4c2.6,5.2,4.4,10.4,6.1,15.6c2.5,7.7,3.7,15.4,4.5,23.1
				c0.6,6.2,7.1,11.6,19,15.2c9.2,2.8,19.3,5.1,26.1,9.2c9.1,5.4,11.7,11.5,10.2,18.2c-2.4,10.9-0.6,21.6,12.6,31.3
				c4.6,3.4,10.7,6.1,17,8.7C1002.7,633.1,1005.1,634.3,1008.4,633.6z"/>
			<path fill="#5096D1" d="M879.6,665.9c-0.6-0.2-1.1-0.5-1.7-0.7c-1.3-0.7-2.3-1.6-3.9-2.1c-12.9-3.9-19.9-9.6-24.6-15.9
				c-31.9,1.2-51.2,9.3-61.6,22.3c-5,6.2-10.8,12.3-19.1,17.8c13.4,4.3,27.4,8.3,40.1,13.1c24.7,9.3,46.1,19.9,66.8,30.9
				c1,0.5,2.3,0.9,3.5,1.4c-1.2-2.1-2.9-4.1-3.5-6.2c-3.1-9.8-0.3-19.5,2.1-29.2C880,686.9,888.9,676.5,879.6,665.9L879.6,665.9z"/>
			<path fill="#5096D1" d="M1074.9,675.5c0.6-1.1,0.6-2.2,0.9-3.3c-11.2-2.6-21-0.5-29.9,2.3c-21.4,6.8-40.4,14.9-58,23.6
				c4.5,8.9,10.6,17.7,17,26.4c3.3,4.5,6.6,9.1,12,13.3c21.8-3.2,43.7-6.3,65.5-9.5c-0.1-4.2-2.9-8.2-5.6-12.2
				C1067.4,702.6,1067.4,689.1,1074.9,675.5z"/>
			<path fill="#5096D1" d="M205.8,162.6c12.1-2.7,21.5-6.9,31.4-10.7c20.5-7.9,41.8-15.5,60.8-24.1c28.3-12.8,46.9-28.2,60.7-44.9
				c12-14.5,20.9-29.5,33.2-44c0.2-0.2,0-0.4,0-0.6c-5.9,0.4-10.2,2.5-16,3.1c-10.2,1.1-20.4,0.6-30.6,0.5c-29-0.1-47.5,8.3-55,19
				c-5.9,8.5-4.6,16.8,0.4,25.2c10.2,16.8,0.3,31.4-24.1,44.5c-20.2,10.8-44.8,19.2-71.3,26.7c-12.2,3.4-24.7,6.3-37.8,8.9
				C174.7,167.7,190.5,165.9,205.8,162.6z"/>
			<path fill="#5096D1" d="M936.2,733.3c-8.4,3.2-17.8,5.2-28.6,6c-6.4,0.5-12.6,0-18.6-1.2c7.9,5.4,17.5,10.2,26.3,15.3
				c3.6-1.2,6.9-2.9,11-3.5c11.6-1.8,23.5-3.2,35.3-4.7c0.7-7.1,0.4-14.1-5.4-20.9C949.4,727.2,943.5,730.6,936.2,733.3z"/>
		</g>
		<g>
			<path fill="#233F88" d="M1043.3,49.7c2.2-1.3,5.6-1.6,9.1-1.8c15.4-0.8,29.9,0.6,43.6,3.7c0-10.4,0-20.8,0-31.2
				c-3,0.1-5.8-0.4-8.6-0.8c-15.2-2.1-30.4-4.3-46.1-5.4c-19-1.4-27.8-6.1-26.1-14.6c-38.4,0-76.7,0-115.1,0c0.6,0.7,2.1,1,3.4,1.4
				c20,6.2,36.1,13.9,42.5,24.6c7.5,12.5,9.3,25.3,5.6,38.2c-2.4,8.2-14.4,12.7-29.9,12.4c-3.6-0.1-7.3,0.3-10.9,0.6
				c-23,1.6-39.7,8.1-41.8,16.7c-1.9,7.9,2,15.4,11.2,22.3c5.6,4.2,11.5,8.3,17.4,12.4c5.9,4.1,9.4,9,18.2,12.1
				c14.5,5.2,21,12.3,23.2,20.1c2.9,10.3,1.1,20.2-17.2,28c-9.9,4.2-18.2,4.2-27.6-0.4c-6.2-3-12-6.1-17.9-9.3
				c-10.9-5.9-25.9-6.1-40.5-3.6c-12.6,2.1-20.2,6.2-22.8,12.3c-3.4,8.1-13.1,11.3-28.6,10.3c-8.1-0.5-13.4-3-18.3-5.6
				c-8.7-4.6-16.7-9.4-25.5-14c-6.8-3.5-13.1-3.4-19,0.4c-6.4,4.3-11.8,8.9-19.1,12.9c4.7,0.8,9.6,1.4,13.5,2.9
				c18.5,7.2,29.9,16,30.5,27.2c0.4,7.4-2.4,14.6-5.3,21.8c4-1.1,8.1-1,12.5-0.5c16.2,2.1,29.1,0,38.8-6.1
				c5.3-3.4,11.2-6.4,19.1-8.6c7-2,14.3-2.4,22.1-0.8c8.4,1.8,14.1,4.7,19.4,8c4.2,2.5,8.3,5.1,14.3,6.9c7.1,2.1,13.7,1.9,19.9-0.7
				c5.1-2.1,8.1-4.8,11.7-7.5c9.5-7,16.4-8.3,32-6.6c18.4,1.9,32.4,6.8,43.2,13.6c11.8,7.4,19.3,15.9,27.1,24.3
				c7.7,8.2,23.8,11.6,40.8,8.5c7.5-1.4,13.8-3.4,18.9-6.3c4.7-2.7,8.1-5.6,12.4-8.4c5.5-3.6,10.8-7.5,22.3-7.6
				c0-14.1,0-28.1,0-42.2c-17,2.3-33.2,1.6-48.8-2.4c-18.6-4.7-23.8-9.1-20.8-18.5c3.9-12.2-2.9-23.2-18.4-33.3
				c-10.9-7.1-20.7-14.4-29.4-22c-3.6-3.2-7.1-6.4-7.4-10.1c-0.4-4.2,4.2-6.5,13.6-6.8c6.9-0.2,13.6,0.4,20.3,1
				c24.2,2.1,47.2,0.3,69.1-4.5c12.8-2.8,16.3-6.5,12.1-12.6c-5.7-8.3-18-14.2-34.6-18.6c-9.9-2.6-18.5-5.8-21.3-11
				C1026.5,62.9,1032.8,56,1043.3,49.7z"/>
			<path fill="#233F88" d="M1064.5,468.3c-1,4-1.1,8.1-1.9,12.2c-1.9,9.5-6.8,18.6-18,26.9c9.4,7.8,11.9,16,6.8,24.5
				c-4.3,7.3-11.2,14.2-20.2,20.7c-6.7,4.8-13.3,9.5-16.4,15.2c-8.2,15.1-7.8,30.3-4.5,45.6c1.2,5.6,1.2,11.2,1.5,16.8
				c0.1,1.3-0.4,2.8-3.5,3.4c-3.3,0.7-5.6-0.5-7.7-1.4c-6.3-2.7-12.4-5.4-17-8.7c-13.2-9.7-15.1-20.4-12.6-31.3
				c1.5-6.7-1.1-12.8-10.2-18.2c-6.9-4.1-16.9-6.5-26.1-9.2c-12-3.6-18.4-8.9-19-15.2c-0.8-7.7-2-15.5-4.5-23.1
				c-1.7-5.2-3.5-10.5-6.1-15.6c-2.5-4.9-10.7-6.2-20.2-3.4c-3.4,1-6.4,2.3-9.4,3.6c-5.2,2.2-9.8,4.6-15.3,6.5
				c-10.1,3.5-20.2,6.3-34.1,2.6c-10.6-2.8-23-3.3-34.8-0.4c-7.9,1.9-13.3,5-17.7,8.3c-13.1,9.8-12.2,20.2-5.5,30.8
				c3.1,4.8,6.1,9.6,6.9,14.6c1.2,7.6-5.8,13.1-19.3,15.1c3.8,6.9,7.4,13.9,11.5,20.7c5.3,8.7,8.7,17.5,7,26.6
				c-1.2,6.4-7.3,11.7-18.8,16.1c-1.8-3.1-1.5-5.9-1.5-8.6c0-3.9,1.2-7.7,3-11.5c1.8-3.7-2.1-7.6-9.2-9.4c-6.4-1.6-14.6-0.8-21,2.1
				c-1.1,0.5-2.1,1.1-3.3,1.6c-7.2,3.2-9.1,7.4-11.6,11.5c-4.4,7.3-14.5,10.9-27.9,10.1c-0.3,1.8-0.2,3.7-0.8,5.5
				c-2.3,6.2-3,12.5-1.9,18.8c1.6,9,7.3,17.3,23,23.7c2.9-3.4,4-7,7.7-10.3c6.7-5.9,15.1-7.3,28.3-4.4c9.6,2.1,19,4.3,28.5,6.4
				c8.4-5.5,14.1-11.6,19.1-17.8c10.4-13,29.7-21.1,61.6-22.3c0-0.5,0.2-1-0.1-1.5c-6.1-11.5-1.4-22.5,10-32.9
				c11.5-10.6,26.2-11.9,44.6-4.7c17.8,7,30.5,15.7,39.7,25.3c13.4,14.2,21.1,29.2,30.6,44c4.5,6.9,7.8,14,13.7,20.7
				c17.6-8.7,36.5-16.8,58-23.6c8.9-2.8,18.7-4.9,29.9-2.3c4.2-4.4,4.4-9.2,4.9-13.8c2.2-18.9-6.5-36.9-26-53.7
				c-9.6-8.3-16.8-16.7-18.2-26c-1.6-10.6,0.9-21,12-30.6c5.9-5.1,17.4-7.2,30-6c6.4,0.6,11.7,2.2,17.6,3.2c0-36.3,0-72.6,0-108.9
				c-7.3,6.2-14.5,12.4-22,18.6C1068.9,459.2,1065.7,463.6,1064.5,468.3z"/>
			<path fill="#233F88" d="M157.6,166.1c-9.6-0.2-19,0.2-28.6-1.5c-11-2-23.5-2.4-34.9-4.1c-25.7-3.7-48.3-1.6-69,5.9
				c-9,3.3-15.9,7.5-24.9,10.7c0,26.3,0,52.6,0,78.9c2.3-0.2,4.5,0.2,6.7,0.4c26.6,2.8,43.3-2.9,43.9-15.2
				c0.5-9.1,4.2-17.8,13.4-25.9c1.3-1.2,3-2.3,4.4-3.5c1.2-1.1,2.4-1.6,5.7-1.4c4.7,0.3,8.6-1.2,12.1-2.5c3.5-1.3,6.8-2.7,10.4-4
				c9.9-3.5,19.6-2.9,27.5,1.4c5.6,3.1,8.7,6.9,13.1,10.3c6.5,5,14.3,9.4,26.3,12.1c15.9,3.5,30.6,1.5,45.1-1.8
				c9.8-2.2,18.7-5.1,29.4-6.5c4-0.5,7.8-1.1,12-1c2.3-0.7,4.4-1.4,6.8-2c22.6-5.7,41.6-13.2,57.2-22.4
				c15.8-9.3,25.6-19.9,33.8-30.9c8.3-11.1,14.1-22.6,20.6-33.9c10.6-18.3,27.8-35.6,43.8-53c11.4-12.4,24.9-24.3,43.6-34.8
				c14.9-8.4,26.5-17.6,34.1-27.7c3.4-4.6,7.5-9.2,7.3-14.2c-23.3,0-46.6,0-69.9,0c0.8,0.6,0.1,1.2-0.4,1.7
				C417,13.9,404.2,26,392,38.2c0,0.2,0.1,0.4,0,0.6c-12.3,14.5-21.2,29.5-33.2,44c-13.8,16.8-32.5,32.1-60.7,44.9
				c-19.1,8.6-40.3,16.2-60.8,24.1c-10,3.9-19.3,8.1-31.4,10.7C190.5,165.9,174.7,167.7,157.6,166.1z"/>
			<path fill="#233F88" d="M195,414.5c-8.9-10.4-4.2-20.2,9.9-28.9c17.4-10.7,19.6-22,10.4-34.2c-0.2-0.3-0.3-0.6-0.6-0.9
				c-2.2-2.2-3.6-4.9-10.1-5.3c-6.6-0.3-10.2,1.9-13.3,4.1c-16.7,11.6-26.6,24.4-30.6,37.9c-3.8,12.7-13.1,23.9-32.9,33.1
				c-9.5,4.4-19,9.1-32.6,11.2c-2.2,0.9-4.5,1.7-6.5,2.7c-17.7,8.3-28.2,18.4-37.1,29c-2.2,2.5-2.2,5.2-1.6,7.8
				c1.2,5.4,5,10.5,8.5,15.7c6,8.8,5,17.2-7.2,25.1c-9.6,6.2-18.6,12.6-29.6,18.3c-6.6,3.4-12.5,7.3-21.6,9.6c0,30.2,0,60.4,0,90.5
				c2.2-0.2,4.4-0.5,6.6-0.7c23-1.8,43,1.6,61.6,7.2c3.6,0,6.3,1.1,9.5,1.6c17.4,2.7,32.5,0.5,45.3-4.8c14.4-5.9,23.6-13.3,27-22
				c1-2.6-0.9-4.5-3.9-6.4c-4-1.9-6.7-4.1-8.9-6.5c-1.7-1.8-3.9-3.5-6.6-5c-6.3-3.6-12.7-4.2-20.6-1.4c-15.5,5.6-37.3,3.4-47.2-5.7
				c-4-3.7-6.3-4.1-15.1-3.4c-8.6,0.7-16.5,2.3-24.4,3.9c-3,0.6-6.4,1.8-9.5,0.3c-2.7-1.3-1.3-2.9-0.3-4.3c3.7-5.7,9.4-11,16.5-16
				c7.9-5.6,21.8-7.4,35-4.5c23,5,46.7,0.5,54.7-10.3c9.2-12.3,19.2-24.4,31.5-36.1c8.4-8,12-16.4,10.1-25.3
				c-2.3-10.6,5.3-20.1,17.1-29c13-9.9,23-20.3,28.8-31.6C204.3,424.9,199.5,419.8,195,414.5z"/>
			<path fill="#233F88" d="M0.1,44.3c9.5,5.3,15.4,11.3,15.1,18.2C14.8,74,22.5,84.3,35.7,94c4.5,2.4,9.5,4.6,15.2,6.5
				c8.5,2.8,15.6,2.7,22.9-0.8c11.7-5.6,16.5-12.4,18-19.9c0.2-0.8,0.3-1.6,0.4-2.4C91.4,63,78,51.7,51.6,43.5
				c-5-1.6-9.4-3.6-13.2-5.7C26.5,31.2,19.4,24.2,30.6,16c3-2.2,5.3-4.6,8.8-6.5c9-4.9,20.3-8.1,35.2-8c4.8,0,8.3,0.9,10.7,2.7
				c5.4,4.1,9.9,8.5,13.9,12.9c7.2,8,9.6,16.5,15.1,24.7c5.4,8.2,7.7,16.5,8,25c0.1,4.1,1.1,8.1,3.9,12
				c11.3,16.1,22.6,32.3,44.4,46.4c12.9-3.7,22.2-9,30.3-14.7c16.2-11.3,26.9-23.7,33.9-36.8c-0.7-6.1-2.3-12.2-6.6-18
				c-9.6-12.9-27.5-23.8-43.7-35.1c-8.9-6.2-18.1-11.9-14.2-19.8c0.2-0.4-0.1-0.8-0.2-1.2c-54.9,0-109.8,0-164.7,0
				c-4.1,0-5.4,0.3-5.3,2.3C0.2,16.1,0.1,30.2,0.1,44.3z"/>
			<path fill="#233F88" d="M672.1,364.3c-2-4.5-1.4-9,5-12.9c8.3-5,19-8.8,32.2-10.9c11.1-1.8,18.5-5.2,21.8-10.2
				c5-7.6,4.4-15.1-2.7-22.4c-3.2-3.3-6.9-6.4-10.4-9.6c-8.8-7.9-17-9.5-35.6-7c-5.2,7.7-13.8,14.5-26.4,20.4
				c-11,5.1-26,3.4-33.9,0.4c-8.2-3.2-12.3-7.3-13.8-11.9c-2.2-6.8-5.8-13.4-12.9-19.5c-5.2-4.5-15.9-5.1-23.9-1.6
				c-3.8,1.7-5.9,3.8-7.1,6.2c-5.5,10.5-4.1,20.8,6.7,30.6c9.3,8.5,11.8,17.1,2.5,25.8c-5.8,5.5-15.2,6.7-26.8,3.6
				c-9.4-2.5-17.7-5.7-24.2-9.7c-6.3-3.9-11.8-8-17.2-12.1c-9,9.6-16.2,19.5-20.9,29.7c-3.1,6.7-8.8,12.2-20.4,16.6
				c-9,3.4-16.7,7.5-27,10.3c-15.2,4.1-28.7,2.8-38-4c-3.3-2.4-5.8-5.1-9-7.5c-5.8-4.5-14.1-4.7-21-0.5c-13.8,8.5-21,18.2-23.8,28.6
				c-1.3,4.6-1.1,9.1-1.3,13.7c-0.4,9-12.2,13.2-31.9,11.4c-9.7-0.9-19.4-1.5-29.1-0.2c-14,1.8-21.9,6.3-26.7,12.1
				c-9.3,11.2-9.7,22.7-1.5,33.9c9,12.3,2.6,23-12.8,33.2c-9.8,6.5-22.5,12-30.5,19.1c-10.5,9.4-13.7,18.9-3.8,28.8
				c5.7,5.7,15.1,10.1,32.5,5.7c1.2-0.3,2.8-1,3.9,0.1c19.9-1.2,34.9-6.1,46.5-13.1c10.4-6.3,15-13.4,12.3-21.3
				c-1.9-5.7-0.6-11.4,2.7-17c3.7-6.3,12.6-11.1,24.1-14.8c10.5-3.3,22.8-3.2,33.1-0.3c19.9,5.7,42.4,0.9,50.5-7.7
				c9.6-10.2,21.9-20,28.2-30.8c6.4-10.9,10.1-22.1,9.5-33.5c-0.6-10.7-1.2-21.4,6.8-31.8c2.3-2.9,5.2-5.7,9.1-8.2
				c11.1-7.2,35-6.9,44.5,0.7c13.5,10.8,22.3,22.3,15.5,34.8c-3.4,6.2-9,12.2-13.6,18.3c-2.2,2.9-3.5,5.9-4,9
				c13.8,7.6,23.7,16.2,29.3,25.6c6.2,10.4,7.1,21.1,8,31.7c9.7-1.1,16.8,0.6,22.4,4.1c3.2,2,5.1,4.3,7.2,6.6
				c11.8,12.5,20.5,25.3,18.8,39.1c-0.4,3.6,0.4,7.3,1.2,11c1.7,8,5.9,15.7,19.3,21.7c5.1,2.3,10.4,2.8,17.3,1.5
				c17.4-3.4,23.1-10.2,26.2-17.8c4.1-10.2-0.3-20.1-4.8-30c-5.9-13.1-17.6-25.5-23.6-38.6c-4.5-9.8-12-18.8-24.5-27.2
				c-18.6-12.5-21.3-26.4-11.7-40.8c1.7-2.5,4-4.8,7.7-6.8c3.8-2.1,13.7-3.7,17.9-2.9c6.1,1.3,4,3.9,4.1,6c0.3,6.8,3.6,13.1,11.3,19
				c6.8,5.2,16.4,6.2,27.7,3c12.8-3.7,18.6-9.1,19.3-15.7C684.5,406.7,681.3,385.4,672.1,364.3z"/>
			<path fill="#233F88" d="M1010,381.4c12.7-9.8,15.8-20.7,14.5-31.9c-0.7-5.5-5-9.9-13.6-14.1c-15-7.2-25.7-15.8-34.1-24.9
				c-9.3-10-25.3-16.1-49.9-17.6c-21.7-1.3-34,2.7-34.5,12.4c-0.6,12.6-3,25.2-5.9,37.8c-1.4,6.1-6,11.4-14.8,16.1
				c-9.9,5.3-20.1,10.5-30.3,15.8c-17.4,9-24.6,19.8-26.1,31.5c-0.3,2.4-0.5,4.9-1.5,7.3c-4.7,11.8-58.3-11.7-48.3,14.8
				c1.2,6,10,9.4,21,11.7c12.2,2.7,24.3,5.4,36.2,8.3c4.8,1.2,8.3,3.1,13,4.4c6.9-2.5,15.4-3.9,22.3-6.4
				c28.7-10.5,43.4-24.6,51.7-40.3c3.4-6.4,4.8-13.1,10.3-19.3c1.3-1.5,2.7-3.4,6.9-3.5c4.1-0.1,5.9,1.8,7.4,3.2
				c5.9,5.8,9.5,11.9,9.5,18.3c0,13.2-7.3,25.7-20,37.5c-12.9,12-15.2,24.3-5.6,36.8c10.9,14.1,16.7,28.5,17.8,43.4
				c0.6,8,5.1,15.7,20,20.7c19.7,6.5,21.2,6.4,34.5-1.5c14.2-8.4,21.8-17.8,22-28.4c-4-2-7.8-4.3-12.2-6.1
				c-11.9-5-12.9-10.8-7.2-17.2c0.7-0.7,1.1-1.5,1.7-2.3c-13.3,0.9-17,0-20-6.1c-4.4-9.3-5.3-18.3,10.7-26.2
				c7.5-3.7,11.2-8.4,13.2-13.3c3-7.2,1.6-14.4-2-21.5C989.8,406.9,993.8,393.9,1010,381.4z"/>
			<path fill="#233F88" d="M956.2,724.3c-3.7-6.5-11.9-12.1-18.5-17.9c-9.3-8.3-19-16.4-29.3-24.4c-7.7-6-16.4-11.7-28.8-16
				c9.4,10.6,0.5,21-2,31.5c-2.3,9.7-5.2,19.4-2.1,29.2c0.7,2.1,2.3,4.1,3.5,6.2c2.7,2.1,5.8,4,10.1,5.5c5.9,1.2,12.1,1.7,18.6,1.2
				c10.8-0.8,20.2-2.8,28.6-6C943.5,730.6,949.4,727.2,956.2,724.3z"/>
			<path fill="#233F88" d="M1016.9,737.7c7.2,8.2,15.1,16.2,28.6,22.7c7.4,3.6,16.6,3.2,23.2-0.8c8.6-5.2,13.7-11.1,14.8-17.5
				c0.8-4.6,1.6-9.4-1.1-14C1060.6,731.4,1038.7,734.5,1016.9,737.7z"/>
			<path fill="#233F88" d="M881,762.4c-12.8,2-26,3.5-39.1,5c-12.8,1.5-22,5-28.5,10.1c0.4,0.6,0.7,1.3,1.1,1.9
				c1.2,0.1,2.3,0.2,3.5,0.3c9.6-0.4,19.2-0.3,28.7-0.1c7.3,0,14.6,0,21.9,0.1c5.5-0.1,11-0.2,16.5-0.3
				C887.4,773.6,887.6,767.8,881,762.4z"/>
			<path fill="#233F88" d="M915.4,753.4c5.4,3.8,12.1,7.1,20.7,9.4c9.1,2.4,16.3,1.1,19.9-3.3c3.8-4.6,5.2-9.4,5.6-14.3
				c-11.8,1.5-23.7,2.9-35.3,4.7C922.3,750.5,919,752.2,915.4,753.4z"/>
			<path fill="#233F88" d="M571.4,634.2c9.4-2.3,19.5-3.4,30.2-3.3c0-2-4.1-2.6-6.2-3.8c-6.7-4-12.1-8.4-15.9-13.1
				c-3.6-4.5-8.7-8.6-17.8-11.3c-24-7.1-52.9-3-63.2,9.1c-4.4,5.2-8.8,10.2-17.5,14.4c-10.3,4.9-17,4.9-27.4,0.1
				c0.1,1.8,2.5,3.3,4.2,4.8c15.3,13.9,14.4,28.2,3.3,42.5c-4.8,6.2-15.5,10.1-29.3,12.4c-14.3,2.4-21.3,7.3-21.9,13.8
				c-1,9.9,0.4,19.7,2.1,29.6c1.2,7.4,2.5,14.9-0.6,22.2c-3.7,8.7-15.8,15.2-29,21.4c-4.9,2.3-10.2,2-16.3-0.4
				c-7.6-2.9-12.7-6.7-17.1-10.6c-2.5-2.2-5.9-3.1-11.3-3.1c-14.3-0.1-25.7,1.8-32.4,8.1c-4.4,4.1-10,8-13.4,12.3
				c19.8,0.1,39.6,0.1,59.3,0.2c30,0,60.1,0.1,90.1,0.1c6.6-6.4,13.6-12.7,23.7-18.1c4.6-2.5,9.6-4.9,15.6-6.8
				c19.4-6.2,28.4-14.9,29.3-25.4c1.2-13.7-3.4-27-15-39.8c-10.3-11.4-11.3-22.8,1.5-34c8.4-7.4,13.1-7.7,25.1-1.4
				c8.2,4.3,13.7,9.4,17.9,14.7c3.8,4.8,8.1,5.4,16.5,1.9c11.7-4.9,25-8.1,41.5-8c0.4-1.4-2.3-1.8-4.1-2.6
				c-9.1-3.9-18.3-7.7-24.9-12.5c-2.7-1.9-4.8-4-5.2-6.2C562.5,638.2,565,635.8,571.4,634.2z"/>
		</g>
		<path fill="#236BB5" d="M523.5,779.7c8.2,0,16.5,0,24.7,0.1c16.6,0,33.3-0.1,49.9-0.1c12.4,0,21.6-5.1,19.3-10.7
			c-1.8-4.3-7.1-7.7-13.9-10.6c-4.2-1.8-6.3-3.8-7.6-6.3c-5.6-10.8-12.5-21.4-20.5-32c-1.2-1.6-1.8-4-6.1-4c-4.9,0-5.6,2.4-6.7,4.1
			c-5.5,8.1-7,16.4-6,24.7c1.1,9.4-7.1,17.2-20,24.2C530.9,772.3,524.9,775.4,523.5,779.7z"/>
		<g>
			<path fill="#236BB5" d="M261,380c7.1-11.5,19.8-22.2,25.3-33.9c4.3-9.2,8.7-18.3,16.3-27.1c3.8-4.4,8.3-8.6,14.4-12.5
				c5.2-3.3,8.8-3.4,15.4-0.5c9.3,4.1,10.8,9.1,7.8,14.4c-4.1,7.2-9.1,14.3-13.6,21.4c-4.2,6.7-4,13.5-0.6,20.2
				c1.2,2.4,4.1,2.5,8,1.8c7.3-1.4,10.9-4.1,12.8-7.4c5.2-9.3,12.5-18.3,24.4-26.4c2.2-1.5,4.5-3.1,7.5-4.4
				c13.4-5.4,14.8-13.1,18.5-20.2c12.7-24.1,23.9-48.3,33.7-72.6c7.4-18.4,7.5-37.1,5.2-55.7c-1.3-10.6-3.9-21.1,0.6-31.7
				c6.3-14.7,22.4-26.4,48.8-35.6c20.2-7,40.1-14.2,58.9-21.8c22-9,32.7-20.7,36.6-33.9c4.3-14.8,2-29.4-1-44.2
				c-0.7-3.4-0.4-6.9-0.5-10.4c-13.7,0-27.4,0-41.1,0c-0.6,1.1-1.2,2.2-1.7,3.3c-4.1,8.3-9.3,16.5-18.8,23.8
				c-15.2,11.7-28.2,23.7-37.9,36.5c-6,7.9-14.4,15.4-25.8,22.1c-16.9,9.9-33.3,19.8-46.7,30.8c-15.6,12.9-21.1,26.3-16.3,40.7
				c3.3,9.8,3.1,19.5-2.3,29.1c-7,12.5-20.6,23.4-38.8,33.3c-12.4,6.7-25.9,13.1-38.1,20.6c-1.7-1.7-2.8-2.9-3.9-4.1
				c-11.6-12.6-27.7-17.4-58-17.2c-4.2-0.1-8.1,0.5-12,1c-10.6,1.4-19.6,4.3-29.4,6.5c-14.5,3.2-29.2,5.3-45.1,1.8
				c-12-2.7-19.8-7.1-26.3-12.1c-4.5-3.4-7.5-7.2-13.1-10.3c-7.9-4.4-17.6-4.9-27.5-1.4c-3.6,1.3-6.9,2.7-10.4,4
				c-3.5,1.3-7.3,2.7-12.1,2.5c-3.3-0.2-4.5,0.4-5.7,1.4c-1.4,1.2-3,2.3-4.4,3.5c-9.2,8.2-12.9,16.9-13.4,25.9
				c-0.7,12.3-17.3,17.9-43.9,15.2c-2.2-0.2-4.4-0.6-6.7-0.4c0,11,0,22,0,33c4.7-0.1,8.1,1.3,11.9,2.2c6.6,1.6,13.3,3.1,19.6,5
				c7.7,2.2,15.1,1.7,22.8,0.3c6.8-1.2,12.2-3.2,16.4-5.8c10.1-6.2,14.3-13.3,14.4-20.9c0.1-7.6,2.2-15,9.9-22c5-4.5,15-6.6,26-6.1
				c14.1,0.7,25.4,3.4,35.3,7.9c14.5,6.6,31.7,9.9,53,8.5c8.6-0.6,18-1.1,25.6,1.8c11.7,4.4,16.3,10.2,14.8,16.9
				c-1.7,7.2-10.4,13-19.4,18.6c-12.4,7.8-28.3,12.6-51.1,12.3c-15.4-0.2-27.4,6.2-28.8,13.2c-1,5.1,3.9,9.1,9.6,13.1
				c9.1,6.4,6.8,10.7-7.2,15c-5.4,1.7-11.7,2.3-17.4,3.5c-15.6,3.5-29,8.5-43.8,12.4c-28.4,7.5-29.1,25.2-13.9,34.1
				c9.4,5.5,18.7,11.1,25,17.5c4.9,4.9,3.1,9.3-4.5,13.4c-1.2,0.6-2.1,1.3-3.1,2c13.6-2.1,23.1-6.8,32.6-11.2
				c19.8-9.2,29.1-20.4,32.9-33.1c4-13.5,13.9-26.3,30.6-37.9c3.1-2.2,6.7-4.4,13.3-4.1c6.5,0.3,7.9,3.1,10.1,5.3
				c0.3,0.3,0.4,0.6,0.6,0.9c9.2,12.2,7,23.5-10.4,34.2c-14.2,8.7-18.9,18.5-9.9,28.9c4.5,5.2,9.3,10.4,12.3,15.8
				c4.3-7,7.1-14,5.5-21.4c-1.5-6.5,0.4-12.8,9.2-18.4c4.3-2.8,9.7-4,17.4-3.8C253.1,387.2,257.4,385.9,261,380z"/>
			<path fill="#236BB5" d="M1073.8,259.3c-4.3,2.8-7.7,5.7-12.4,8.4c-5.1,2.9-11.4,5-18.9,6.3c-17,3.1-33.1-0.3-40.8-8.5
				c-7.9-8.4-15.3-16.8-27.1-24.3c-10.8-6.8-24.7-11.7-43.2-13.6c-15.6-1.6-22.5-0.4-32,6.6c-3.6,2.6-6.6,5.3-11.7,7.5
				c-6.2,2.6-12.8,2.8-19.9,0.7c-6.1-1.8-10.2-4.3-14.3-6.9c-5.3-3.2-11-6.2-19.4-8c-7.8-1.6-15.1-1.2-22.1,0.8
				c-7.9,2.2-13.8,5.3-19.1,8.6c-9.7,6.1-22.6,8.3-38.8,6.1c-4.4-0.6-8.5-0.7-12.5,0.5c-1.7,1.5-2,3.1-1.5,4.8
				c3.5,12.6,17.5,22,43.4,27.3c23.6,4.8,34.3,13,34.6,24.1c0.3,12,5.9,25.8,0.1,37c-5.5,10.7-15.3,11.5-25.2,15.7
				c-9.5,3.9-19.2,7.9-27.5,14.1c-17.6,13.2-19.3,31.6-7.6,49.9c12,18.8,46.7,20.4,56-2.8c1-2.4,1.2-4.8,1.5-7.3
				c1.5-11.7,8.7-22.5,26.1-31.5c10.1-5.2,20.3-10.5,30.3-15.8c8.8-4.7,13.4-10.1,14.8-16.1c2.9-12.6,5.3-25.1,5.9-37.8
				c0.5-9.7,12.9-13.7,34.5-12.4c24.7,1.5,40.7,7.5,49.9,17.6c8.4,9.1,19.1,17.7,34.1,24.9c8.6,4.1,12.9,8.5,13.6,14.1
				c1.4,11.2-1.8,22.1-14.5,31.9c-16.2,12.5-20.2,25.5-13.2,39.5c3.6,7.1,5,14.3,2,21.5c-2,4.9-5.7,9.6-13.2,13.3
				c-16,7.8-15.1,16.9-10.7,26.2c2.9,6.1,6.7,7,20,6.1c2.3-0.7,4.6-1.3,6.8-2c20.9-7,29.8-16.9,31.3-28.1
				c2.1-14.9,7.7-29.3,22.4-42.8c15.1-13.9,20.5-29.1,27-44.1c3.8-8.8,7.4-17.6,13.6-26.1c0-31,0-62,0-93
				C1084.5,251.8,1079.3,255.8,1073.8,259.3z"/>
			<path fill="#236BB5" d="M1048.5,548.1c-11.1,9.6-13.6,20-12,30.6c1.4,9.3,8.6,17.7,18.2,26c19.5,16.8,28.1,34.8,26,53.7
				c-0.5,4.6-0.6,9.4-4.9,13.8c-0.3,1.1-0.3,2.2-0.9,3.3c-7.5,13.6-7.5,27.1,1.9,40.5c2.8,4,5.5,7.9,5.6,12.2
				c2.7,4.6,1.9,9.3,1.1,14c-1.1,6.4-6.3,12.3-14.8,17.5c-6.6,4-15.9,4.3-23.2,0.8c-13.5-6.5-21.4-14.6-28.6-22.7
				c-5.4-4.2-8.6-8.7-12-13.3c-6.4-8.7-12.5-17.4-17-26.4c-5.9-6.7-9.2-13.8-13.7-20.7c-9.5-14.8-17.2-29.8-30.6-44
				c-9.1-9.7-21.9-18.4-39.7-25.3c-18.4-7.2-33.1-5.8-44.6,4.7c-11.4,10.4-16,21.4-10,32.9c0.3,0.5,0.1,1,0.1,1.5
				c4.8,6.4,11.7,12.1,24.6,15.9c1.6,0.5,2.6,1.4,3.9,2.1c0.5,0.2,1.1,0.5,1.6,0.7c12.4,4.3,21.1,10,28.8,16
				c10.3,8,20,16.2,29.3,24.4c6.6,5.9,14.8,11.5,18.5,17.9c5.8,6.8,6.2,13.8,5.4,20.9c-0.4,4.9-1.8,9.7-5.6,14.3
				c-3.7,4.4-10.8,5.7-19.9,3.3c-8.6-2.3-15.4-5.5-20.7-9.4c-8.9-5.1-18.4-9.9-26.3-15.3c-4.3-1.5-7.4-3.4-10.1-5.5
				c-1.2-0.5-2.5-0.9-3.5-1.4c-20.7-11-42.1-21.6-66.8-30.9c-12.7-4.8-26.7-8.8-40.1-13.1c-9.5-2.1-18.9-4.3-28.5-6.4
				c-13.3-2.9-21.6-1.5-28.3,4.4c-3.7,3.3-4.8,6.9-7.7,10.3c0.4,4-1.1,7.9,0.9,11.9c7.2,14.5,44.4,28.3,80.1,29.4
				c30.3,0.9,56.3,6.1,79.2,14.7c7.5,2.8,14.7,6.1,16.8,10.8c6.6,5.4,6.4,11.2,4.1,17.1c30.9,0,61.9,0.1,92.8,0.1
				c39.4,0,78.7,0.1,118.1,0.1c0-78.1,0-156.2,0-234.3c-5.9-1-11.2-2.6-17.6-3.2C1065.9,541,1054.3,543,1048.5,548.1z"/>
			<path fill="#236BB5" d="M879.6,665.9C879.6,665.9,879.6,665.9,879.6,665.9C879.6,665.9,879.5,665.9,879.6,665.9L879.6,665.9z"/>
			<path fill="#236BB5" d="M190,773.2c-2.3-3.8-8.4-6.4-14.6-9c-12-5-23.3-10.3-39.1-13c-16-2.8-32.1-2.7-48.9-1.2
				c-14.2,1.3-28.2,0.5-39.4-4.3c-9.9-2.2-17.5-5.8-25.8-9c-6.7-2.6-13.9-4.6-22.2-5.9c0,6.9,0,13.9,0,20.8c3.5,0.1,5.4,1.4,8.1,2.1
				c8.8,2.4,15.2,6.1,23.7,8.7c20.9,6.3,44,6.8,67.7,4.8c23.2-1.9,45.4,2.8,55.6,12.3c14.9,0,29.7,0.1,44.6,0.1
				C198.5,776.8,191.6,775.8,190,773.2z"/>
			<path fill="#236BB5" d="M184.4,20.7c16.2,11.3,34.1,22.2,43.7,35.1c4.3,5.8,5.9,11.9,6.6,18c7.2-11.1,8-22.4,3.4-33.8
				c-4.4-10.9-4.6-21.8-0.7-32.8c1-2.6,3.3-5,5.2-7.5c-24.2,0-48.4,0-72.6,0c0.1,0.4,0.4,0.8,0.2,1.2
				C166.3,8.7,175.5,14.5,184.4,20.7z"/>
			<path fill="#236BB5" d="M35.7,94c-13.2-9.7-20.9-20-20.5-31.4c0.2-6.9-5.7-12.9-15.1-18.2c0,26.9,0,53.8,0,80.8
				c12.2-4.3,18.4-10.4,24.8-16.4C29.7,104,32.5,98.9,35.7,94z"/>
			<path fill="#236BB5" d="M280,14.8c6.1-0.8,11.1-2.2,14.8-4.5c5.4-3.4,12.5-6.4,14.8-10.6c-10,0-20.1,0-30.1,0
				c1,4.6-0.5,9.1-3.2,13.5C275.2,15,275.9,15.4,280,14.8z"/>
			<path fill="#236BB5" d="M642,257.7c-10.9,0.5-17.6-2.5-20-7.4c-1.6-3.2-1.5-6.5-1.1-9.7c1.1-10.4,6.9-19.9,21.5-28.4
				c9-5.3,19.7-10.2,25.2-16.6c-0.4-1.2-0.7-2.4-1.2-3.6c-2.2-5,2.3-8.9,9.9-12.4c-7.7-3.8-10.5-8.7-14.7-13.3
				c-4-4.4-7.7-8.9-13-13.1c-2.8-2.2-5.9-4.4-12.8-4.3c-16.1,17.3-36.6,33.5-64.5,47.6c-17.7,8.9-35.4,17.8-46.4,28.8
				c-9.6,9.7-15.3,19.8-16.6,30.3c-1.6,12.5-0.6,25-1.7,37.5c-0.9,10.1-0.7,20.1-1.2,30.2c5.4,4.1,11,8.2,17.2,12.1
				c6.5,4,14.8,7.2,24.2,9.7c11.6,3.1,21,1.9,26.8-3.6c9.3-8.8,6.8-17.4-2.5-25.8c-10.8-9.8-12.2-20.1-6.7-30.6
				c1.2-2.3,3.3-4.5,7.1-6.2c8-3.5,18.7-2.9,23.9,1.6c7.1,6.1,10.7,12.7,12.9,19.5c1.5,4.7,5.6,8.8,13.8,11.9
				c7.9,3,22.9,4.7,33.9-0.4c12.6-5.9,21.2-12.7,26.4-20.4c3.3-6.6,3.3-13.1-0.7-19.6C675.7,262,662.2,256.8,642,257.7z"/>
			<path fill="#236BB5" d="M546.6,496c-0.9-10.7-1.9-21.4-8-31.7c-5.6-9.4-15.5-18-29.3-25.6c-13.8,11.2-17,23-9.8,35.4
				c2.9,5,6.6,10,10.1,14.9c7.8,11.1,7.5,22-2.6,32.9c-5.9,6.3-11.8,12.6-20.6,18.2c-6.2,4-13.9,8-21.5,8.9
				c-12.7,1.6-12.5-6.8-18.4-15.1c-8-11.3-26.8-12.7-36.9-3.7c-14.3,12.7-4.4,34.4-12.7,50c-4.2,7.9-11.7,13.5-18.4,19.5
				c-8.3,7.4,6.1,21.4,9.5,28.1c3.3,6.6,8.7,8.7,11.8,15.3c5.6,12.1-0.7,22.9-10.1,30.8c-10.3,8.5-25.8,12.9-47.9,12.1
				c-5.8-0.2-10.7,0.8-15.4,2.2c-4.4,1.2-8.5,2.7-12.9,4c-26.8,7.8-40.5,18.5-36.4,33c3.3,11.5-0.6,22.7-7.5,33.8
				c-4.2,6.8-11.5,12.8-23.3,17.7c-2.4,1-6.6,1.1-7.4,2.9c17.6,0,35.3-0.1,52.9-0.1c3.3-4.4,9-8.2,13.4-12.3
				c6.7-6.3,18.1-8.1,32.4-8.1c5.4,0,8.9,0.9,11.3,3.1c4.3,3.9,9.5,7.7,17.1,10.6c6.1,2.4,11.4,2.6,16.3,0.4
				c13.2-6.1,25.3-12.7,29-21.4c3.2-7.4,1.9-14.9,0.6-22.2c-1.7-9.9-3.1-19.7-2.1-29.6c0.7-6.5,7.7-11.4,21.9-13.8
				c13.8-2.3,24.5-6.2,29.3-12.4c11.1-14.3,12-28.5-3.3-42.5c-1.7-1.5-4.1-3-4.2-4.8c-3.8-3.6-3.1-7.4-2.6-11.1
				c1.5-10.8,8.1-20.7,26.8-28.2c16.1-6.4,33.8-12,54.8-14.6c12.1-1.5,17.8-4.9,22.1-9.4c3-3.2,4.8-6.6,5.8-10
				c3.7-12.7,0.1-25.2-4.9-37.7C552.9,508.9,549.6,502.5,546.6,496z"/>
			<path fill="#236BB5" d="M38.3,37.8c3.8,2.1,8.3,4.2,13.2,5.7C78,51.7,91.4,63,92.1,77.3c8.5,1.1,10.3,4.2,11.1,7.6
				c1.2,5.5-2.7,10.7-5,15.9c-3.9,9.1-5,18.3-3.9,27.6c0.1,1.2,0.1,2.2,3.4,2.6c25.5,3.2,49.5,2.7,71.1-5c0.7-0.2,1.2-0.6,1.8-0.9
				c-21.8-14.1-33.1-30.2-44.4-46.4c-2.7-3.9-3.7-8-3.9-12c-0.2-8.5-2.5-16.8-8-25c-5.4-8.2-7.9-16.7-15.1-24.7
				c-4-4.4-8.5-8.8-13.9-12.9c-2.4-1.8-5.9-2.7-10.7-2.7c-14.9-0.1-26.2,3.1-35.2,8c-3.6,1.9-5.9,4.3-8.8,6.5
				C19.4,24.2,26.5,31.2,38.3,37.8z"/>
			<path fill="#236BB5" d="M806.7,774.1c-9.6-5.4-21.9-7.4-36.9-6c-5.8,0.5-11.4,1.3-17,2.3c-6.5,1.1-8.8,2.9-7.3,5.9
				c0.6,1.1,1.1,2.2,1.6,3.3c22.4,0,44.9-0.1,67.3-0.1c-0.4-0.6-0.7-1.3-1.1-1.9C810.3,776.6,808.8,775.2,806.7,774.1z"/>
		</g>
	</g>
</g>
<rect x="435" y="732.7" fill="#233F88" width="230.6" height="46.8"/>
<g>
	<g>
		<g>
			<path fill="#FFFFFF" d="M571.5,742.9c0.5,0,1,0.5,1,0.5l-8.9,19c-1,0-3.3,0.1-3.9,0.1c-0.5,0-1-0.5-1-0.5l-3-19
				c1.8,0,4.2-0.1,4.8-0.1c0.5,0,1,0.5,1,0.5l0.9,9.3c0.1,0.8,0.1,1.9,0.1,3.1c0.3-1.3,0.6-2.5,1-3.3l3.7-9.4
				C568.9,743,570.9,742.9,571.5,742.9L571.5,742.9z"/>
		</g>
		<g>
			<path fill="#FFFFFF" d="M580.7,752.3c0,2.1-1.2,3.4-4,4l-3,0.6c0.2,1.3,1.1,1.9,2.4,1.9c1.7,0,2.8-1.3,2.8-1.3s0.8,0.5,0.8,1.4
				c0,1.7-2.6,3.6-5.7,3.6c-3.1,0-5.2-2-5.2-5.3c0-3.8,2.7-9.1,7.6-9.1C579.1,748.3,580.7,749.9,580.7,752.3L580.7,752.3z
				 M575.6,754.3c0.6-0.2,0.8-0.7,0.8-1.3c0-0.6-0.2-1.4-0.9-1.4c-1.2,0-1.7,1.9-1.9,3.4L575.6,754.3z"/>
		</g>
		<g>
			<path fill="#FFFFFF" d="M588.9,748.3c2.4,0,4.3,1.3,4.3,3c0,2.1-2.6,2.9-2.6,2.9s-0.7-2.3-2.5-2.3c-1.2,0-1.8,1.2-1.8,3.7
				c0,2.3,0.6,3.3,2.1,3.3c1.5,0,2.5-1,2.5-1s0.9,0.5,0.9,1.4c0,1.7-2.5,3.4-5.5,3.4c-3.2,0-5.1-2-5.1-5.3
				C581.1,753.5,583.9,748.3,588.9,748.3L588.9,748.3z"/>
		</g>
		<g>
			<path fill="#FFFFFF" d="M600.6,745.2c0.6,0,1,0.5,1,0.5l-0.5,2.9h3.1l-0.7,2.2c-0.2,0.7-0.6,1.1-1.3,1.1h-1.6l-0.9,5.7
				c-0.1,0.9,0.1,1.3,0.7,1.3c0.6,0,1.1-0.3,1.1-0.3s0.9,0.5,0.9,1.4c0,1.4-2,2.8-4.5,2.8c-2.6,0-3.7-1.6-3.3-4.5l1-6.3H594l0.7-2.3
				c0.2-0.6,0.7-1,1.3-1h0.8l1-2.7C599,745.6,600.1,745.2,600.6,745.2L600.6,745.2z"/>
		</g>
		<g>
			<path fill="#FFFFFF" d="M615.5,752.3c0,2.1-1.2,3.4-4,4l-3,0.6c0.2,1.3,1.1,1.9,2.4,1.9c1.7,0,2.8-1.3,2.8-1.3s0.9,0.5,0.9,1.4
				c0,1.7-2.6,3.6-5.7,3.6c-3.1,0-5.2-2-5.2-5.3c0-3.8,2.7-9.1,7.6-9.1C613.9,748.3,615.5,749.9,615.5,752.3L615.5,752.3z
				 M610.4,754.3c0.6-0.2,0.8-0.7,0.8-1.3c0-0.6-0.2-1.4-0.9-1.4c-1.2,0-1.7,1.9-1.9,3.4L610.4,754.3z"/>
		</g>
		<g>
			<path fill="#FFFFFF" d="M627.9,752.3c0,2.1-1.2,3.4-4,4l-3,0.6c0.2,1.3,1.1,1.9,2.4,1.9c1.7,0,2.8-1.3,2.8-1.3s0.9,0.5,0.9,1.4
				c0,1.7-2.6,3.6-5.7,3.6c-3.1,0-5.2-2-5.2-5.3c0-3.8,2.7-9.1,7.6-9.1C626.2,748.3,627.9,749.9,627.9,752.3L627.9,752.3z
				 M622.8,754.3c0.6-0.2,0.8-0.7,0.8-1.3c0-0.6-0.2-1.4-0.9-1.4c-1.2,0-1.7,1.9-1.9,3.4L622.8,754.3z"/>
		</g>
		<g>
			<path fill="#FFFFFF" d="M638,757.4c0,0,1,1,1,2.5c0,2.1-1.8,2.7-3.3,2.7c-2,0-3.4-0.9-4.9-1.4c-0.4,0.5-0.8,1-1.2,1.4
				c0,0-2.2-0.1-2.2-1.6c0-1.8,3.1-5,6.4-8.5c-0.4-0.1-0.7-0.1-1.1-0.1c-1.9,0-2.6,0.9-2.6,0.9s-1-1.1-0.9-2.5c0.1-2,2-2.5,3.5-2.5
				c1.6,0,2.7,0.6,3.9,1.1l0.9-1.1c0,0,2.2,0.1,2.2,1.6c0,1.8-3,4.9-6.2,8.3c0.7,0.2,1.3,0.3,1.9,0.3
				C637.2,758.5,638,757.4,638,757.4L638,757.4z"/>
		</g>
		<g>
			<path fill="#FFFFFF" d="M652.3,761.4c-0.8,4.8-4.1,7.3-8.3,7.3c-2.7,0-4.7-1.4-4.7-3c0-1.1,0.9-1.6,0.9-1.6s0.9,0.8,2.7,0.8
				c1.7,0,4-0.7,4.4-3.3l0.3-2c-1.1,1.6-2.6,3-4.5,3c-2.1,0-3.1-1.7-2.5-5.3l0.6-3.8c0.4-2.3,0.5-4.3,0.5-4.3c1.5-0.3,3.5-1,4.2-1
				c0.5,0,1,0.5,1,0.5l-0.8,4.8l-0.7,4.4c-0.1,0.4,0,0.6,0.4,0.6c1.8,0,2.8-5.1,2.8-5.1c0.4-2.3,0.5-4.3,0.5-4.3
				c1.5-0.3,3.5-1,4.2-1c0.5,0,1,0.5,1,0.5l-0.8,4.8L652.3,761.4z"/>
		</g>
	</g>
	<g>
		<path fill="#FFFFFF" d="M447.6,749.1h4.8c1.1,0,1.9,0.1,2.5,0.2c0.8,0.2,1.4,0.6,1.9,1.2c0.5,0.6,0.9,1.3,1.2,2.1
			c0.3,0.8,0.4,1.8,0.4,3c0,1.1-0.1,2-0.4,2.7c-0.3,0.9-0.8,1.7-1.4,2.3c-0.5,0.4-1.1,0.8-1.8,1c-0.6,0.2-1.3,0.3-2.3,0.3h-4.9
			V749.1z M450.2,751.2v8.5h1.9c0.7,0,1.3,0,1.6-0.1c0.4-0.1,0.8-0.3,1.1-0.5c0.3-0.3,0.5-0.7,0.7-1.2c0.2-0.6,0.3-1.4,0.3-2.4
			s-0.1-1.8-0.3-2.3c-0.2-0.5-0.4-0.9-0.7-1.2c-0.3-0.3-0.7-0.5-1.2-0.6c-0.4-0.1-1.1-0.1-2.1-0.1H450.2z"/>
		<path fill="#FFFFFF" d="M465.6,759l2.5,0.4c-0.3,0.9-0.8,1.6-1.5,2.1c-0.7,0.5-1.5,0.7-2.6,0.7c-1.6,0-2.8-0.5-3.6-1.6
			c-0.6-0.8-0.9-1.9-0.9-3.2c0-1.5,0.4-2.8,1.2-3.6c0.8-0.9,1.8-1.3,3.1-1.3c1.4,0,2.5,0.5,3.3,1.4c0.8,0.9,1.2,2.3,1.2,4.2H462
			c0,0.7,0.2,1.3,0.6,1.7c0.4,0.4,0.9,0.6,1.4,0.6c0.4,0,0.7-0.1,1-0.3C465.3,759.8,465.5,759.4,465.6,759z M465.7,756.5
			c0-0.7-0.2-1.3-0.6-1.6c-0.4-0.4-0.8-0.6-1.3-0.6c-0.5,0-1,0.2-1.3,0.6c-0.4,0.4-0.5,0.9-0.5,1.6H465.7z"/>
		<path fill="#FFFFFF" d="M469,759.3l2.5-0.4c0.1,0.5,0.3,0.8,0.6,1.1c0.3,0.2,0.8,0.4,1.4,0.4c0.6,0,1.1-0.1,1.4-0.4
			c0.2-0.2,0.3-0.4,0.3-0.7c0-0.2-0.1-0.3-0.2-0.5c-0.1-0.1-0.4-0.2-0.8-0.3c-2-0.4-3.3-0.8-3.8-1.2c-0.7-0.5-1.1-1.2-1.1-2.1
			c0-0.8,0.3-1.5,1-2c0.6-0.6,1.6-0.8,3-0.8c1.3,0,2.2,0.2,2.8,0.6s1,1,1.3,1.8l-2.3,0.4c-0.1-0.4-0.3-0.6-0.6-0.8
			c-0.3-0.2-0.7-0.3-1.2-0.3c-0.7,0-1.1,0.1-1.4,0.3c-0.2,0.1-0.3,0.3-0.3,0.5c0,0.2,0.1,0.3,0.2,0.4c0.2,0.2,1,0.4,2.3,0.7
			c1.3,0.3,2.2,0.7,2.8,1.1c0.5,0.4,0.8,1.1,0.8,1.8c0,0.9-0.4,1.6-1.1,2.2c-0.7,0.6-1.8,0.9-3.2,0.9c-1.3,0-2.3-0.3-3-0.8
			C469.7,760.9,469.2,760.2,469,759.3z"/>
		<path fill="#FFFFFF" d="M479.5,751.3v-2.3h2.5v2.3H479.5z M479.5,761.9v-9.3h2.5v9.3H479.5z"/>
		<path fill="#FFFFFF" d="M483.9,762.6l2.8,0.3c0,0.3,0.2,0.6,0.3,0.7c0.2,0.2,0.6,0.3,1.1,0.3c0.6,0,1.1-0.1,1.5-0.3
			c0.2-0.1,0.4-0.3,0.5-0.6c0.1-0.2,0.1-0.6,0.1-1.1v-1.4c-0.7,1-1.7,1.5-2.8,1.5c-1.3,0-2.2-0.5-3-1.6c-0.6-0.8-0.9-1.9-0.9-3.1
			c0-1.6,0.4-2.8,1.1-3.6c0.8-0.8,1.7-1.2,2.8-1.2c1.2,0,2.1,0.5,2.9,1.5v-1.3h2.3v8.4c0,1.1-0.1,1.9-0.3,2.5
			c-0.2,0.5-0.4,1-0.8,1.3c-0.3,0.3-0.8,0.6-1.3,0.7c-0.5,0.2-1.2,0.3-2.1,0.3c-1.6,0-2.7-0.3-3.4-0.8c-0.7-0.5-1-1.2-1-2.1
			C483.9,762.8,483.9,762.7,483.9,762.6z M486.1,757.1c0,1,0.2,1.7,0.6,2.2c0.4,0.5,0.9,0.7,1.4,0.7c0.6,0,1.1-0.2,1.5-0.7
			c0.4-0.5,0.6-1.2,0.6-2.1c0-1-0.2-1.7-0.6-2.2c-0.4-0.5-0.9-0.7-1.5-0.7c-0.6,0-1.1,0.2-1.5,0.7
			C486.3,755.4,486.1,756.1,486.1,757.1z"/>
		<path fill="#FFFFFF" d="M503.2,761.9h-2.5v-4.8c0-1-0.1-1.7-0.2-2c-0.1-0.3-0.3-0.5-0.5-0.7c-0.2-0.2-0.5-0.2-0.9-0.2
			c-0.4,0-0.8,0.1-1.2,0.4c-0.3,0.2-0.6,0.5-0.7,0.9c-0.1,0.4-0.2,1.1-0.2,2.1v4.2h-2.5v-9.3h2.3v1.4c0.8-1.1,1.8-1.6,3.1-1.6
			c0.5,0,1,0.1,1.5,0.3c0.5,0.2,0.8,0.4,1,0.8c0.2,0.3,0.4,0.7,0.5,1c0.1,0.4,0.1,0.9,0.1,1.7V761.9z"/>
		<path fill="#FFFFFF" d="M510.8,759l2.5,0.4c-0.3,0.9-0.8,1.6-1.5,2.1c-0.7,0.5-1.5,0.7-2.6,0.7c-1.6,0-2.8-0.5-3.6-1.6
			c-0.6-0.8-0.9-1.9-0.9-3.2c0-1.5,0.4-2.8,1.2-3.6c0.8-0.9,1.8-1.3,3.1-1.3c1.4,0,2.5,0.5,3.3,1.4c0.8,0.9,1.2,2.3,1.2,4.2h-6.2
			c0,0.7,0.2,1.3,0.6,1.7c0.4,0.4,0.9,0.6,1.4,0.6c0.4,0,0.7-0.1,1-0.3C510.5,759.8,510.7,759.4,510.8,759z M510.9,756.5
			c0-0.7-0.2-1.3-0.6-1.6c-0.4-0.4-0.8-0.6-1.3-0.6c-0.5,0-1,0.2-1.3,0.6c-0.4,0.4-0.5,0.9-0.5,1.6H510.9z"/>
		<path fill="#FFFFFF" d="M523.6,761.9h-2.3v-1.4c-0.4,0.5-0.8,0.9-1.3,1.2c-0.5,0.3-1,0.4-1.6,0.4c-1.1,0-2-0.4-2.8-1.3
			c-0.8-0.9-1.1-2.1-1.1-3.6c0-1.6,0.4-2.8,1.1-3.6c0.7-0.8,1.7-1.2,2.8-1.2c1,0,1.9,0.4,2.7,1.3v-4.6h2.5V761.9z M517,757.1
			c0,1,0.1,1.7,0.4,2.2c0.4,0.6,1,1,1.7,1c0.6,0,1.1-0.2,1.5-0.7c0.4-0.5,0.6-1.2,0.6-2.2c0-1.1-0.2-1.8-0.6-2.3
			c-0.4-0.5-0.9-0.7-1.5-0.7c-0.6,0-1.1,0.2-1.5,0.7C517.2,755.5,517,756.1,517,757.1z"/>
		<path fill="#FFFFFF" d="M530.2,761.9v-12.9h2.5v4.6c0.8-0.9,1.7-1.3,2.7-1.3c1.1,0,2.1,0.4,2.8,1.2c0.7,0.8,1.1,2,1.1,3.5
			c0,1.6-0.4,2.8-1.1,3.7c-0.8,0.9-1.7,1.3-2.8,1.3c-0.5,0-1.1-0.1-1.6-0.4c-0.5-0.3-1-0.7-1.3-1.2v1.4H530.2z M532.7,757.1
			c0,1,0.2,1.7,0.5,2.1c0.4,0.7,1,1,1.7,1c0.5,0,1-0.2,1.4-0.7c0.4-0.5,0.6-1.2,0.6-2.2c0-1.1-0.2-1.8-0.6-2.3
			c-0.4-0.5-0.9-0.7-1.5-0.7c-0.6,0-1.1,0.2-1.5,0.7C532.9,755.4,532.7,756.1,532.7,757.1z"/>
		<path fill="#FFFFFF" d="M539.8,752.6h2.6l2.2,6.6l2.2-6.6h2.6l-3.3,9l-0.6,1.6c-0.2,0.5-0.4,1-0.6,1.2c-0.2,0.3-0.4,0.5-0.7,0.7
			c-0.3,0.2-0.6,0.3-0.9,0.4c-0.4,0.1-0.8,0.1-1.3,0.1c-0.5,0-0.9,0-1.4-0.1l-0.2-1.9c0.4,0.1,0.7,0.1,1,0.1c0.6,0,1-0.2,1.3-0.5
			c0.3-0.3,0.5-0.8,0.6-1.3L539.8,752.6z"/>
	</g>
</g>
</svg>
